<svg id="Layer_1" data-name="Layer 1" xmlns="http://www.w3.org/2000/svg" viewBox="0 0 290.71 94.83">
  <title>logo_b&amp;amp;W</title>
  <path d="M18.52,74.44c-.33-6.72.81-5.88,11.15-6.14,8.92-.22,15.15-.31,25.47-4.77C66,58.82,63.7,52.75,63.7,36.67S45.15,23,26.31,23,0,31.27,0,47.89.18,76.07.18,76.07C.18,88,3.64,92.89,23.45,94.67s40.4-4.93,40.4-4.93V72.25C51.34,78.37,18.94,82.26,18.52,74.44Zm.42-27.88c0-6.89,3.09-10.37,11-10.37s15.6-1,15.6,5.69,1,9.25-3.57,11.21a22.87,22.87,0,0,1-10.63,2C18.36,55.08,18.94,46.56,18.94,46.56Z" transform="translate(0 -0.19)"/>
  <path d="M176,44.5c.32,6.59-.8,5.77-10.93,6-8.74.21-14.85.31-25,4.67-10.69,4.61-8.39,10.56-8.39,26.33s18.25,13.39,36.68,13.39,25.8-8.06,25.8-24.36S194,42.91,194,42.91c0-11.68-3.39-16.5-22.82-18.28s-31.85,4.1-31.85,4.1V45.92C151.59,39.92,175.63,36.83,176,44.5Zm-.38,27.34c0,6.8-3.06,10.17-10.77,10.17s-15.3,1-15.3-5.58-1-9.06,3.5-11a22.5,22.5,0,0,1,10.42-2c12.69,0,12.15,8.35,12.15,8.35Z" transform="translate(0 -0.19)"/>
  <path d="M85.94,95c-.93,0-1.64-1.28-2.14-3.73l-16-64.44a7.72,7.72,0,0,1-.23-1.66c0-.87.33-1.3,1-1.3H85.94c1,0,1.7,1.22,2.2,3.67l10.8,45.23,10.89-45.23c.46-2.45,1.17-3.67,2.14-3.67H129.4c.62,0,.93.43.93,1.3a7.72,7.72,0,0,1-.23,1.66L114.16,91.29c-.5,2.49-1.23,3.73-2.2,3.73Z" transform="translate(0 -0.19)"/>
  <path d="M204.72.19h17.37c1,0,1.45,1,1.45,3V92.07c0,2-.46,3-1.39,3H204.72c-1,0-1.45-1-1.45-3V3.14C203.27,1.17,203.75.19,204.72.19Z" transform="translate(0 -0.19)"/>
  <path d="M231.37,73c2,.71,3.89,1.45,5.84,2.08a78,78,0,0,0,27.45,3.94,27.28,27.28,0,0,0,6.45-1.32,3.52,3.52,0,0,0,2.54-3.92,12,12,0,0,0-.08-1.69c-.21-2.29-1-3.09-3.36-3.2-3.6-.18-7.19-.4-10.79-.44a46.52,46.52,0,0,1-21.83-5.35c-3.93-2.11-6.1-5.28-6.22-9.7-.13-5.1,0-10.2-.07-15.3q0-5.24-.08-10.47c0-3.6,1.71-5.44,5.31-5.49q3.21,0,6.41,0c3.83.06,5.36,1.61,5.37,5.47V48.35a10.87,10.87,0,0,0,.1,1.8,3.65,3.65,0,0,0,2,3c5.76,3,11.77,3.79,17.9,1.42,3.68-1.42,5.53-4,5.43-7.65-.18-6.49-.06-13-.05-19.47a7.9,7.9,0,0,1,.23-2.11,3.63,3.63,0,0,1,3.38-3,83.72,83.72,0,0,1,9.1-.1c2.92.17,4.31,1.9,4.31,4.84V47q0,15-.19,30.05a31.81,31.81,0,0,1-.54,6,11.4,11.4,0,0,1-8.63,9.15,73,73,0,0,1-23.8,2.63c-8.63-.49-17-2.5-25.25-4.71a1.16,1.16,0,0,1-1.1-1.18V73.3A1.24,1.24,0,0,1,231.37,73Z" transform="translate(0 -0.19)"/>
</svg>
